<svg width="32" height="31" viewBox="0 0 32 31" fill="none" xmlns="http://www.w3.org/2000/svg">
<path d="M18.8125 8H13.1875C10.5991 8 8.5 10.0991 8.5 12.6875V18.3125C8.5 20.9009 10.5991 23 13.1875 23H18.8125C21.4009 23 23.5 20.9009 23.5 18.3125V12.6875C23.5 10.0991 21.4009 8 18.8125 8ZM22.0938 18.3125C22.0938 20.1219 20.6219 21.5938 18.8125 21.5938H13.1875C11.3781 21.5938 9.90625 20.1219 9.90625 18.3125V12.6875C9.90625 10.8781 11.3781 9.40625 13.1875 9.40625H18.8125C20.6219 9.40625 22.0938 10.8781 22.0938 12.6875V18.3125Z" fill="white"/>
<path d="M16 11.75C13.9291 11.75 12.25 13.4291 12.25 15.5C12.25 17.5709 13.9291 19.25 16 19.25C18.0709 19.25 19.75 17.5709 19.75 15.5C19.75 13.4291 18.0709 11.75 16 11.75ZM16 17.8438C14.7081 17.8438 13.6562 16.7919 13.6562 15.5C13.6562 14.2072 14.7081 13.1562 16 13.1562C17.2919 13.1562 18.3438 14.2072 18.3438 15.5C18.3438 16.7919 17.2919 17.8438 16 17.8438Z" fill="white"/>
<path d="M20.0314 11.9684C20.3074 11.9684 20.5311 11.7447 20.5311 11.4687C20.5311 11.1928 20.3074 10.9691 20.0314 10.9691C19.7555 10.9691 19.5317 11.1928 19.5317 11.4687C19.5317 11.7447 19.7555 11.9684 20.0314 11.9684Z" fill="white"/>
<path d="M1 15.5C1 23.7843 7.71573 30.5 16 30.5C24.2843 30.5 31 23.7843 31 15.5C31 7.21573 24.2843 0.5 16 0.5C7.71573 0.5 1 7.21573 1 15.5Z" stroke="white"/>
<path d="M16 11.75C13.9291 11.75 12.25 13.4291 12.25 15.5C12.25 17.5709 13.9291 19.25 16 19.25C18.0709 19.25 19.75 17.5709 19.75 15.5C19.75 13.4291 18.0709 11.75 16 11.75ZM16 17.8438C14.7081 17.8438 13.6562 16.7919 13.6562 15.5C13.6562 14.2072 14.7081 13.1562 16 13.1562C17.2919 13.1562 18.3438 14.2072 18.3438 15.5C18.3438 16.7919 17.2919 17.8438 16 17.8438Z" fill="white"/>
<path d="M20.0314 11.9684C20.3074 11.9684 20.5311 11.7447 20.5311 11.4687C20.5311 11.1928 20.3074 10.9691 20.0314 10.9691C19.7555 10.9691 19.5317 11.1928 19.5317 11.4687C19.5317 11.7447 19.7555 11.9684 20.0314 11.9684Z" fill="white"/>
</svg>
