<svg width="32" height="31" viewBox="0 0 32 31" fill="none" xmlns="http://www.w3.org/2000/svg">
<path d="M1 15.5C1 23.7843 7.71573 30.5 16 30.5C24.2843 30.5 31 23.7843 31 15.5C31 7.21573 24.2843 0.5 16 0.5C7.71573 0.5 1 7.21573 1 15.5Z" stroke="white"/>
<path d="M16.2042 8C12.0931 8 9.90674 10.6345 9.90674 13.5071C9.90674 14.8394 10.6511 16.5007 11.8428 17.0276C12.0237 17.1092 12.1222 17.0745 12.1625 16.9067C12.1981 16.7791 12.3547 16.1651 12.4306 15.8754C12.454 15.7825 12.4419 15.7019 12.3668 15.6147C11.9712 15.1572 11.6571 14.3237 11.6571 13.5418C11.6571 11.5383 13.25 9.59288 15.9604 9.59288C18.3043 9.59288 19.9441 11.1155 19.9441 13.2934C19.9441 15.7544 18.6418 17.457 16.9496 17.457C16.013 17.457 15.3154 16.722 15.5367 15.8125C15.8039 14.7297 16.328 13.5653 16.328 12.7843C16.328 12.0839 15.9323 11.5045 15.1242 11.5045C14.1707 11.5045 13.3972 12.4486 13.3972 13.7162C13.3972 14.5215 13.6822 15.0653 13.6822 15.0653C13.6822 15.0653 12.7391 18.8755 12.5637 19.5871C12.2675 20.7918 12.604 22.7429 12.6331 22.9107C12.6509 23.0035 12.755 23.0326 12.8131 22.9566C12.9059 22.8347 14.046 21.2081 14.3657 20.0324C14.4819 19.604 14.9592 17.8667 14.9592 17.8667C15.2732 18.4339 16.1798 18.9092 17.1455 18.9092C20.0181 18.9092 22.0938 16.3844 22.0938 13.2512C22.0835 10.2473 19.5128 8 16.2042 8Z" fill="white"/>
</svg>
