<svg width="32" height="31" viewBox="0 0 32 31" fill="none" xmlns="http://www.w3.org/2000/svg">
<path d="M1 15.5C1 23.7843 7.71573 30.5 16 30.5C24.2843 30.5 31 23.7843 31 15.5C31 7.21573 24.2843 0.5 16 0.5C7.71573 0.5 1 7.21573 1 15.5Z" stroke="white"/>
<path d="M23.3663 19.4194C23.326 19.3405 23.0766 18.7073 21.8765 17.4059C20.6202 16.0431 20.7889 16.2644 22.3022 13.9081C23.2238 12.473 23.5923 11.5967 23.4769 11.222C23.3672 10.8649 22.6894 10.9591 22.6894 10.9591L20.4355 10.9744C20.4355 10.9744 20.2686 10.9481 20.1439 11.0347C20.0229 11.1201 19.9451 11.3173 19.9451 11.3173C19.9451 11.3173 19.5879 12.4281 19.1116 13.3724C18.1075 15.3651 17.7053 15.4702 17.5412 15.3464C17.1596 15.0583 17.2552 14.1874 17.2552 13.5696C17.2552 11.6383 17.5056 10.8331 16.7668 10.625C16.5211 10.556 16.3411 10.51 15.7139 10.5023C14.9094 10.4924 14.2278 10.5056 13.8425 10.7258C13.5856 10.8726 13.3878 11.2001 13.5087 11.2187C13.6578 11.2417 13.9953 11.325 14.1744 11.6098C14.406 11.9768 14.3975 12.8028 14.3975 12.8028C14.3975 12.8028 14.5307 15.0759 14.0872 15.3585C13.7825 15.5524 13.3653 15.1569 12.4699 13.3483C12.0114 12.4226 11.6645 11.3984 11.6645 11.3984C11.6645 11.3984 11.5979 11.2078 11.4789 11.1059C11.3345 10.9821 11.132 10.9427 11.132 10.9427L8.98868 10.958C8.98868 10.958 8.6671 10.969 8.54896 11.1322C8.44396 11.2779 8.54052 11.578 8.54052 11.578C8.54052 11.578 10.2188 16.1647 12.1183 18.4773C13.8612 20.597 15.8395 20.4579 15.8395 20.4579H16.7358C16.7358 20.4579 17.0068 20.4228 17.1446 20.2486C17.2721 20.0887 17.2674 19.7885 17.2674 19.7885C17.2674 19.7885 17.2496 18.3831 17.8084 18.176C18.3587 17.9723 19.0657 19.5344 19.8148 20.1358C20.3811 20.5904 20.8114 20.4907 20.8114 20.4907L22.815 20.4579C22.815 20.4579 23.8632 20.3823 23.3663 19.4194Z" fill="white"/>
</svg>
