<svg width="16" height="16" viewBox="0 0 16 16" fill="none" xmlns="http://www.w3.org/2000/svg">
<g clip-path="url(#clip0)">
<path d="M8.64554 7.55266C8.64339 7.7312 8.78156 7.87773 8.9541 7.87989C8.95541 7.87998 8.95668 7.87998 8.958 7.87998C9.12874 7.87998 9.26827 7.73777 9.27033 7.56055C9.28479 6.33854 8.81908 5.27897 7.80468 4.22587C7.68282 4.09939 7.48503 4.09906 7.36286 4.22516C7.24065 4.35119 7.24034 4.55592 7.36212 4.68241C8.26211 5.61676 8.6579 6.50192 8.64554 7.55266Z" fill="#B86D56"/>
<path d="M14.7441 3.81765C14.1135 3.36777 13.2776 3.25681 12.2598 3.48783C11.5013 3.65996 10.6464 4.02733 9.77205 4.55444C9.73094 4.48687 9.68872 4.41994 9.64471 4.35401C8.86974 3.1914 7.317 1.83142 5.78078 0.969957C3.86756 -0.103098 2.251 -0.292794 1.22874 0.435659C0.207125 1.16447 -0.1972 2.79513 0.0902736 5.02733C0.321072 6.81928 0.995906 8.80516 1.76947 9.96884C2.57059 11.1743 3.80007 12.0128 5.14271 12.2691C5.20272 12.2806 5.26268 12.2905 5.32261 12.2996C5.60311 13.4711 6.2645 14.4748 7.2025 15.1442C7.98369 15.7011 8.89337 15.9883 9.83912 15.9883C10.1978 15.9883 10.562 15.947 10.9259 15.8633C12.2416 15.5608 13.4009 14.7405 14.1901 13.5535C14.9803 12.3644 15.6697 10.3352 15.9055 8.50445C16.1991 6.22513 15.7866 4.56062 14.7441 3.81765ZM5.25611 11.6332C4.07533 11.4078 2.9922 10.6676 2.28434 9.60239C1.56146 8.51496 0.92867 6.64202 0.709681 4.94184C0.601328 4.10046 0.599263 3.35284 0.696434 2.72807C0.775478 3.34401 0.937267 3.99399 1.11504 4.58005C1.59248 6.1577 2.37885 7.89555 3.11842 9.00748C3.17901 9.0986 3.2767 9.1475 3.37606 9.1475C3.43714 9.1475 3.49885 9.12901 3.55293 9.09049C3.69506 8.98923 3.73099 8.78794 3.63314 8.6408C2.9369 7.59409 2.16458 5.88453 1.71127 4.3866C1.19871 2.69684 1.12903 1.43115 1.5179 1.02596C1.67499 1.10789 2.20901 1.47825 3.58865 3.12712C4.54992 4.27596 5.61894 5.6906 6.3122 6.73107C6.37282 6.82201 6.4704 6.8709 6.56969 6.8709C6.63084 6.8709 6.6926 6.85232 6.74674 6.8137C6.88877 6.7123 6.92458 6.51101 6.82661 6.36396C6.07027 5.2289 4.87925 3.66352 3.8629 2.46893C3.29045 1.79612 2.80577 1.27605 2.42222 0.923134C2.33717 0.844894 2.25519 0.772659 2.17605 0.707608C2.34411 0.668354 2.52583 0.648732 2.71988 0.648732C3.4821 0.648732 4.43327 0.949715 5.48305 1.53846C6.94045 2.3558 8.40622 3.63481 9.13039 4.72127C9.83978 5.78454 10.1223 7.09518 9.90531 8.31723C9.70946 9.42095 9.12991 10.3672 8.27288 10.9839C8.17639 10.9859 7.81383 10.8399 7.1143 10.1331C6.48289 9.49499 5.76864 8.59261 5.10325 7.59235C4.72101 7.01762 4.26229 6.26947 3.8116 5.48579C3.72337 5.33241 3.53159 5.28197 3.38331 5.37333C3.23502 5.46468 3.18635 5.66306 3.27462 5.81649C3.73212 6.61199 4.19872 7.3729 4.58849 7.95904C5.51369 9.34991 6.70917 10.8009 7.59505 11.3741C7.10339 11.5936 6.5707 11.7066 6.02371 11.7065C5.77008 11.7065 5.51321 11.6823 5.25611 11.6332ZM15.2861 8.41896C15.0621 10.1581 14.4148 12.0742 13.6753 13.187C12.9759 14.2388 11.9514 14.9651 10.7904 15.232C9.63818 15.4969 8.48986 15.2766 7.55713 14.6117C6.8018 14.0728 6.25324 13.2809 5.98439 12.3528C5.99794 12.3529 6.01153 12.3534 6.02503 12.3534C6.25486 12.3534 6.48267 12.3359 6.70689 12.3016C6.94067 13.0021 7.36921 13.5882 7.95884 14.0085C8.51831 14.4075 9.15393 14.6114 9.82496 14.6114C10.0404 14.6114 10.2595 14.5904 10.4809 14.548C11.5231 14.3487 12.4748 13.7013 13.0918 12.7718C13.3768 12.3436 13.6432 11.7975 13.8835 11.1488C13.9452 10.982 13.8646 10.795 13.7035 10.7311C13.5424 10.6672 13.3618 10.7506 13.3 10.9173C13.0773 11.5184 12.8342 12.019 12.577 12.4053C12.0607 13.183 11.2347 13.7463 10.3674 13.9121C9.62323 14.0543 8.91296 13.9036 8.31338 13.476C7.85574 13.1498 7.51785 12.6993 7.32283 12.1615C7.78003 12.023 8.21523 11.8108 8.61379 11.5265L8.61365 11.5266C9.61587 10.8121 10.2929 9.71378 10.5201 8.43406C10.6353 7.78501 10.6269 7.1147 10.5037 6.46203C11.2083 6.0076 11.8688 5.69089 12.4695 5.52014C13.0527 5.35367 13.4211 5.34513 13.6289 5.49321C13.8365 5.64124 13.9601 6.00033 14.0176 6.62311C14.0599 7.08181 14.0448 7.6084 13.9727 8.18801C13.9507 8.36514 14.0715 8.5272 14.2427 8.55001C14.2562 8.55184 14.2697 8.55268 14.283 8.55268C14.4378 8.55268 14.5722 8.43369 14.5924 8.27059C14.6706 7.64321 14.6864 7.06825 14.6396 6.5616C14.5621 5.72265 14.3597 5.2289 13.9833 4.96061C13.6069 4.69232 13.0888 4.67262 12.3037 4.89661C11.6938 5.06994 11.0345 5.37623 10.3398 5.80781C10.2662 5.57401 10.1772 5.34442 10.0738 5.1208C11.9071 4.01126 13.5079 3.72111 14.3897 4.3501C15.2165 4.93945 15.5432 6.42252 15.2861 8.41896Z" fill="#B86D56"/>
<path d="M14.0158 9.323C13.8432 9.323 13.7034 9.46864 13.7034 9.64717C13.7034 9.82575 13.8432 9.9705 14.0158 9.9705C14.1884 9.9705 14.3282 9.82575 14.3282 9.64717V9.6453C14.3282 9.46676 14.1884 9.323 14.0158 9.323Z" fill="#B86D56"/>
</g>
<defs>
<clipPath id="clip0">
<rect width="16" height="16" fill="white"/>
</clipPath>
</defs>
</svg>
